<svg xmlns="http://www.w3.org/2000/svg"  >
  <symbol width="14" height="15" viewBox="0 0 14 15" id="phone">
    <path d="M13.7455 13.0923C13.4909 13.5935 12.9818 13.8441 12.4727 14.0947C11.8364 14.4706 11.3273 14.5959 10.6909 14.5959C9.8 14.5959 8.90909 14.22 8.14545 13.9694C7.50909 13.7188 7 13.4682 6.36364 13.2176C4.58182 12.09 2.54545 10.0853 1.52727 8.45643C1.14545 7.82996 0.890909 7.32879 0.636364 6.70231C0.381818 5.82525 0 5.07349 0 4.07113C0 3.44466 0.127273 2.81819 0.509091 2.19171C0.763636 1.69054 1.01818 1.18936 1.52727 0.938771C1.90909 0.938771 2.54545 0.813477 2.92727 0.813477C3.05455 0.813477 3.05455 0.813477 3.18182 0.813477C3.43636 0.938771 3.56364 1.31465 3.69091 1.56524C3.94545 2.19171 4.32727 2.69289 4.58182 3.31936C4.83636 3.56995 5.09091 3.82054 5.09091 4.07113C5.09091 4.6976 3.30909 5.57466 3.30909 6.07584C3.30909 6.32643 3.56364 6.70231 3.69091 6.9529C4.70909 8.70702 5.98182 9.95997 7.76364 10.9623C8.01818 11.0876 8.4 11.3382 8.65455 11.3382C9.16364 11.3382 10.0545 9.58408 10.6909 9.58408C10.9455 9.58408 11.2 9.83467 11.4545 10.0853C11.9636 10.4611 12.6 10.7117 13.1091 11.0876C13.3636 11.2129 13.7455 11.3382 13.8727 11.5888C13.8727 11.7141 13.8727 11.7141 13.8727 11.8394C14 12.09 13.8727 12.7164 13.7455 13.0923Z"/>
  </symbol>
  <symbol  viewBox="0 0 52 52" id="listening">
    <path d="M15.9708 1C7.71605 1 1 8.27579 1 17.2591C1.03177 19.342 1.60287 21.3811 2.6576 23.1775C3.15599 24.0277 3.58274 24.918 3.93344 25.839C4.16602 26.5159 3.94278 27.2658 3.37786 27.7053C2.39499 28.4911 1.82544 29.6832 1.83171 30.9415C1.82776 32.3243 2.51136 33.6185 3.65565 34.3948C4.06703 34.6743 4.31726 35.1359 4.32684 35.6332V42.5854C4.32684 47.1715 7.68444 50.9025 11.8122 50.9025C15.94 50.9025 19.2976 47.1715 19.2976 42.5854C19.285 39.1601 20.7745 35.9014 23.373 33.6695C28.2442 29.6051 31.0244 23.5619 30.9415 17.2183C30.9415 8.27579 24.2255 1 15.9708 1ZM22.2917 32.4062C19.3233 34.9534 17.621 38.674 17.6342 42.5854C17.6342 46.2541 15.0218 49.2391 11.8122 49.2391C8.60265 49.2391 5.99025 46.2541 5.99025 42.5854V35.6332C5.97678 34.6031 5.47131 33.6417 4.63041 33.0466C3.91983 32.5825 3.49254 31.7902 3.49513 30.9415C3.48942 30.1765 3.83983 29.4523 4.44327 28.982C5.55062 28.0949 5.97343 26.603 5.49622 25.2668C5.11317 24.2593 4.64662 23.2856 4.10144 22.3558C3.18489 20.7969 2.68934 19.0265 2.66342 17.2183C2.66342 9.19316 8.63342 2.66342 15.9708 2.66342C23.3081 2.66342 29.2781 9.19316 29.2781 17.2183C29.3542 23.0745 26.788 28.6533 22.2917 32.4062Z" fill="black"/>
    <path d="M15.9707 5.15854C11.3356 5.15854 7.38335 8.44545 5.84885 13.0398C5.83803 13.0673 5.83055 13.0939 5.82223 13.123C5.38372 14.4571 5.15915 15.8522 5.15686 17.2566C5.15686 18.2546 5.15686 21.307 7.06397 23.2141C7.39032 23.5293 7.90906 23.5248 8.22988 23.204C8.5507 22.8832 8.5552 22.3644 8.24001 22.0381C7.55671 21.2785 7.11793 20.3308 6.9808 19.3184C7.11471 19.3101 7.24695 19.2993 7.38584 19.2993C11.2034 19.2976 14.3073 22.7908 14.3073 27.0824C14.3073 27.4808 14.2882 27.855 14.2574 28.2243C13.8433 28.6664 13.4028 29.0831 12.9383 29.4719C10.5159 31.4557 9.17332 34.4674 9.31707 37.5952C9.31707 38.0545 9.68944 38.4269 10.1488 38.4269C10.6081 38.4269 10.9805 38.0545 10.9805 37.5952C10.8374 34.958 11.9646 32.4116 14.0129 30.7444C16.9473 28.4922 18.6072 24.9568 18.4659 21.2604C18.4659 16.0539 14.5485 11.8122 9.73293 11.8122C9.17973 11.8137 8.62816 11.8722 8.08697 11.9869C9.53264 8.91802 12.5799 6.92167 15.9707 6.82196C21.0151 6.82196 25.1195 11.502 25.1195 17.2549C25.1849 21.787 23.2194 26.1106 19.7617 29.0411C19.6469 29.14 19.5196 29.2465 19.3816 29.3621C17.7265 30.7377 14.284 33.6038 13.4806 40.8305C13.432 41.2859 13.7607 41.6949 14.2158 41.7454C14.2462 41.7498 14.2767 41.7526 14.3073 41.7537C14.731 41.7533 15.0866 41.4346 15.1332 41.0135C15.8626 34.4513 18.8426 31.972 20.4445 30.6404C20.5917 30.5173 20.7273 30.4042 20.8487 30.2994C24.6768 27.0566 26.8537 22.2714 26.783 17.2549C26.783 10.5846 21.9324 5.15854 15.9707 5.15854ZM9.73293 13.4756C13.6311 13.4756 16.8025 16.9688 16.8025 21.2604C16.8402 22.8342 16.5277 24.3966 15.8876 25.8348C15.3295 21.2105 11.7349 17.6342 7.38751 17.6342C7.19538 17.6342 7.01074 17.6483 6.82527 17.6616C6.82527 17.5019 6.82527 17.363 6.82527 17.2549C6.82557 16.1427 6.98465 15.0361 7.29768 13.9688C8.0689 13.6452 8.89657 13.4776 9.73293 13.4756Z" fill="black"/>
    <path d="M42.5854 20.1293C42.6492 17.508 43.7609 15.0216 45.6719 13.2261C45.904 13.02 46.002 12.7017 45.926 12.4007C45.8501 12.0997 45.6128 11.8661 45.3106 11.7948C45.0084 11.7235 44.6917 11.8264 44.4892 12.0617C42.268 14.1648 40.983 17.071 40.922 20.1293C40.983 23.1876 42.268 26.0937 44.4892 28.1969C44.6917 28.4322 45.0084 28.5351 45.3106 28.4638C45.6128 28.3925 45.8501 28.1589 45.926 27.8579C46.002 27.5569 45.904 27.2386 45.6719 27.0325C43.7609 25.237 42.6492 22.7506 42.5854 20.1293Z" fill="black"/>
    <path d="M48.1288 15.3495C47.964 15.2028 47.7477 15.1275 47.5275 15.1403C47.3072 15.1531 47.1011 15.2529 46.9544 15.4177C44.4561 18.062 44.4561 22.1966 46.9544 24.8409C47.152 25.0629 47.453 25.1626 47.744 25.1024C48.0351 25.0423 48.2719 24.8315 48.3653 24.5494C48.4587 24.2673 48.3946 23.9567 48.197 23.7348C46.2597 21.7215 46.2597 18.5371 48.197 16.5239C48.3437 16.3591 48.4189 16.1428 48.4061 15.9225C48.3933 15.7023 48.2936 15.4962 48.1288 15.3495Z" fill="black"/>
    <path d="M50.6887 17.9095C50.3814 17.5683 49.8557 17.5407 49.5144 17.8479C48.8154 18.3986 48.4074 19.2394 48.4074 20.1293C48.4074 21.0192 48.8154 21.86 49.5144 22.4107C49.7341 22.6165 50.0479 22.6875 50.3348 22.5964C50.6217 22.5052 50.837 22.2662 50.8976 21.9713C50.9583 21.6764 50.8548 21.3717 50.6272 21.1748C50.3047 20.9185 50.1032 20.5399 50.0708 20.1293C50.1032 19.7187 50.3047 19.3401 50.6272 19.0838C50.9684 18.7765 50.9959 18.2508 50.6887 17.9095Z" fill="black"/>
    <path d="M38.4269 20.1293C38.4269 16.4698 40.0662 12.9334 43.1676 9.91259C43.3804 9.70459 43.466 9.39889 43.3923 9.11064C43.3185 8.82239 43.0966 8.59539 42.8101 8.51514C42.5236 8.43489 42.216 8.51358 42.0032 8.72158C38.5766 12.0617 36.7635 16.0065 36.7635 20.1293C36.7635 24.2521 38.5766 28.1969 42.0032 31.537C42.3321 31.8586 42.8594 31.8526 43.1809 31.5237C43.5025 31.1948 43.4965 30.6676 43.1676 30.346C40.0662 27.3253 38.4269 23.7888 38.4269 20.1293Z" fill="black"/>
    <path d="M34.2684 20.1293C34.2684 15.5599 36.1996 11.1585 39.855 7.40416C40.063 7.19111 40.1415 6.88328 40.061 6.59662C39.9805 6.30997 39.7532 6.08804 39.4647 6.01443C39.1762 5.94082 38.8703 6.02672 38.6623 6.23977C34.7 10.3151 32.6049 15.1183 32.6049 20.1293C32.6049 25.1403 34.7 29.9435 38.6623 34.0188C38.9839 34.3482 39.5115 34.3545 39.8408 34.033C40.1702 33.7114 40.1765 33.1838 39.855 32.8544C36.1996 29.1001 34.2684 24.6987 34.2684 20.1293Z" fill="black"/>
  </symbol>
  <symbol  viewBox="0 0 52 52" id="battery">
    <path d="M34.2832 5.99995H17.7168C15.8879 5.99995 14.4001 7.48777 14.4001 9.31671V46.6831C14.4001 48.5121 15.8879 49.9999 17.7168 49.9999H34.2833C36.1122 49.9999 37.6 48.5121 37.6 46.6831V9.31683C37.6 7.48777 36.1122 5.99995 34.2832 5.99995ZM36 46.6832C36 47.6296 35.2296 48.4 34.2832 48.4H17.7168C16.7704 48.4 16 47.6296 16 46.6832V9.31683C16 8.37042 16.7704 7.60003 17.7168 7.60003H34.2833C35.2297 7.60003 36.0001 8.37042 36.0001 9.31683V46.6832H36Z" fill="black"/>
    <path d="M30.4 2H21.6001C21.1583 2 20.8 2.35824 20.8 2.80004V6.8C20.8 7.2418 21.1583 7.60004 21.6001 7.60004H30.4C30.8418 7.60004 31.2001 7.2418 31.2001 6.8V2.80004C31.2 2.35824 30.8418 2 30.4 2ZM29.6 5.99996H22.4V3.59996H29.6V5.99996Z" fill="black"/>
    <path d="M31.8746 23.9702C31.7278 23.7392 31.4734 23.5998 31.2 23.5998H26.4V16.3998C26.4 16.0248 26.1393 15.7002 25.7734 15.619C25.404 15.5381 25.0336 15.7217 24.875 16.0616L19.275 28.0616C19.1594 28.3092 19.1785 28.5992 19.3254 28.8296C19.4722 29.0606 19.7266 29.2 20 29.2H24.8V36.4C24.8 36.775 25.0606 37.0996 25.4266 37.1808C25.4848 37.1939 25.543 37.2001 25.6004 37.2001C25.9058 37.2001 26.1914 37.0243 26.325 36.7382L31.925 24.7382C32.0406 24.4906 32.0215 24.2006 31.8746 23.9702ZM24.8 27.6H21.2563L24.8 20.0057V27.6ZM26.4 32.7942V25.2H29.9437L26.4 32.7942Z" fill="black"/>

  </symbol>
  <symbol  viewBox="0 0 52 52" id="socket">
    <path d="M38.8 12.4H36.4V4.4C36.4 3.03997 35.36 2 34 2C32.6399 2 31.6 3.03997 31.6 4.4V12.4H20.4V4.4C20.4 3.03997 19.3601 2 18 2C16.64 2 15.6 3.03997 15.6 4.4V12.4H13.2C12.72 12.4 12.4001 12.7199 12.4001 13.1999V19.2799C12.4001 23.2799 13.92 27.1199 16.6401 30.0799C19.0401 32.7999 20.4001 36.3199 20.4001 39.9199V41.9999C20.4001 44.2399 22.1601 46 24.4002 46H25.2001V49.1999C25.2001 49.6799 25.5201 49.9999 26.0001 49.9999C26.4801 49.9999 26.8001 49.6799 26.8001 49.1999V46H27.6C29.84 46 31.6001 44.24 31.6001 41.9999V40C31.6001 36.32 32.88 32.8799 35.3601 30.16C38.0801 27.2 39.6001 23.2799 39.6001 19.28V13.2C39.6 12.72 39.28 12.4 38.8 12.4ZM33.2 4.4C33.2 3.92 33.52 3.60003 34 3.60003C34.48 3.60003 34.7999 3.92 34.7999 4.4V12.4H33.2V4.4ZM17.2 4.4C17.2 3.99997 17.5199 3.60003 17.9999 3.60003C18.4799 3.60003 18.7999 3.92 18.7999 4.4V12.4H17.1999V4.4H17.2ZM38 19.2C38 22.88 36.72 26.3201 34.24 29.04C31.52 32 30 35.92 30 39.92V42C30 43.3601 28.9601 44.4 27.6 44.4H24.4001C23.04 44.4 22.0001 43.3601 22.0001 42V40.0001C22.0001 36 20.4801 32.0801 17.76 29.1201C15.36 26.4 14 22.88 14 19.28V14H16.4H19.6H32.3999H35.6H38V19.2Z" fill="black"/>
    <path d="M29.2 22.8H24.7199L28.96 18.56C29.2799 18.24 29.2799 17.76 28.96 17.44C28.64 17.1199 28.16 17.12 27.8399 17.44L22.24 23.0399C22 23.2799 21.92 23.5999 22.0799 23.92C22.1599 24.2399 22.48 24.4 22.7999 24.4H27.28L23.0399 28.64C22.72 28.96 22.72 29.44 23.0399 29.76C23.2 29.9201 23.3599 30 23.5999 30C23.8399 30 23.9999 29.9201 24.1599 29.76L29.7599 24.1601C29.9999 23.9201 30.0798 23.6001 29.9199 23.28C29.84 22.96 29.52 22.8 29.2 22.8Z" fill="black"/>
  </symbol>
  <symbol  viewBox="0 0 60 60" id="battery2">
    <path d="M42.536 4H36V0H24V4H17.464C15.554 4 14 5.554 14 7.464V56.536C14 58.446 15.554 60 17.464 60H42.536C44.446 60 46 58.446 46 56.536V7.464C46 5.554 44.446 4 42.536 4ZM16 19H44V31H16V19ZM16 33H44V45H16V33ZM26 2H34V4H26V2ZM17.464 6H24H36H42.536C43.344 6 44 6.656 44 7.464V17H16V7.464C16 6.656 16.656 6 17.464 6ZM42.536 58H17.464C16.656 58 16 57.344 16 56.536V47H44V56.536C44 57.344 43.344 58 42.536 58Z" fill="black"/>
  </symbol>
  <symbol  viewBox="0 0 68 68" id="feat">
    <path d="M36.404 11.413C35.428 10.861 34.273 10.879 33.314 11.457C33.268 11.484 33.224 11.516 33.184 11.55L19.634 23.013H9C8.447 23.013 8 23.46 8 24.013V43.013C8 43.279 8.105 43.533 8.293 43.72C8.481 43.907 8.734 44.013 9 44.013L19.61 44.008L33.153 56.448C33.203 56.494 33.257 56.534 33.314 56.568C33.806 56.865 34.351 57.014 34.896 57.014C35.413 57.013 35.929 56.88 36.404 56.612C37.403 56.048 38 55.018 38 53.857V14.169C38 13.008 37.403 11.978 36.404 11.413ZM36 53.857C36 54.288 35.783 54.667 35.421 54.872C35.266 54.959 34.873 55.127 34.421 54.898L21 42.569V38.013C21 37.46 20.553 37.013 20 37.013C19.447 37.013 19 37.46 19 38.013V42.009L10 42.013V25.013H19V29.013C19 29.566 19.447 30.013 20 30.013C20.553 30.013 21 29.566 21 29.013V24.477L34.405 13.137C34.866 12.895 35.265 13.067 35.421 13.155C35.783 13.36 36 13.739 36 14.169V53.857Z" fill="black"/>
    <path d="M46.797 15.066C46.274 14.889 45.706 15.169 45.528 15.692C45.351 16.214 45.631 16.783 46.154 16.961C53.255 19.372 58.026 26.024 58.026 33.514C58.026 40.997 53.264 47.65 46.177 50.068C45.655 50.246 45.375 50.814 45.554 51.338C45.696 51.753 46.084 52.015 46.5 52.015C46.607 52.015 46.716 51.998 46.823 51.961C54.719 49.268 60.025 41.855 60.025 33.515C60.026 25.166 54.71 17.753 46.797 15.066Z" fill="black"/>
    <path d="M51.026 33.513C51.026 27.541 47.017 22.211 41.277 20.551C40.744 20.4 40.193 20.703 40.039 21.235C39.886 21.765 40.191 22.32 40.723 22.473C45.612 23.886 49.027 28.426 49.027 33.513C49.027 38.6 45.612 43.14 40.723 44.553C40.192 44.706 39.886 45.261 40.039 45.791C40.166 46.229 40.565 46.514 41 46.514C41.092 46.514 41.185 46.501 41.277 46.475C47.018 44.815 51.026 39.485 51.026 33.513Z" fill="black"/>
  </symbol>
  <symbol  viewBox="0 0 60 60" id="time">
    <path d="M31.634 37.989C32.675 37.908 33.624 37.377 34.24 36.53L43.603 23.586C43.89 23.189 43.847 22.641 43.499 22.293C43.151 21.946 42.603 21.903 42.206 22.189L29.26 31.555C28.416 32.169 27.885 33.118 27.804 34.159C27.723 35.2 28.1 36.219 28.837 36.956C29.508 37.628 30.413 38 31.354 38C31.447 38 31.54 37.996 31.634 37.989ZM29.798 34.315C29.833 33.858 30.067 33.441 30.435 33.173L38.332 27.46L32.621 35.355C32.351 35.726 31.934 35.959 31.477 35.995C31.022 36.025 30.575 35.867 30.25 35.542C29.928 35.219 29.762 34.771 29.798 34.315Z" fill="black"/>
    <path d="M54.034 19.564C54.024 19.543 54.024 19.521 54.013 19.5C54.001 19.48 53.982 19.469 53.969 19.45C52.958 17.716 51.762 16.103 50.404 14.641L52.552 12.494L53.966 13.908L58.208 9.665L53.966 5.423L49.723 9.665L51.138 11.08L48.99 13.227C47.528 11.869 45.916 10.672 44.181 9.661C44.162 9.648 44.151 9.629 44.131 9.617C44.11 9.605 44.088 9.606 44.067 9.595C40.974 7.813 37.499 6.626 33.794 6.191V5H35.294C36.673 5 37.794 3.879 37.794 2.5C37.794 1.121 36.672 0 35.293 0H26.293C24.914 0 23.793 1.121 23.793 2.5C23.793 3.879 24.914 5 26.293 5H27.793V6.156C26.713 6.271 25.635 6.447 24.569 6.691C24.031 6.814 23.694 7.351 23.818 7.889C23.941 8.427 24.478 8.765 25.016 8.64C25.936 8.429 26.865 8.27 27.796 8.163L28.869 8.08C29.197 8.055 29.499 8.037 29.793 8.023V10C29.793 10.553 30.24 11 30.793 11C31.346 11 31.793 10.553 31.793 10V8.03C35.554 8.203 39.098 9.213 42.249 10.875L41.263 12.582C40.987 13.061 41.151 13.672 41.629 13.948C41.786 14.039 41.958 14.082 42.128 14.082C42.474 14.082 42.81 13.903 42.995 13.582L43.978 11.879C47.107 13.864 49.765 16.522 51.75 19.651L50.047 20.634C49.57 20.91 49.406 21.521 49.683 22C49.869 22.321 50.204 22.5 50.55 22.5C50.72 22.5 50.892 22.457 51.049 22.366L52.756 21.38C54.441 24.576 55.454 28.178 55.605 31.999H53.63C53.077 31.999 52.63 32.446 52.63 32.999C52.63 33.552 53.077 33.999 53.63 33.999H55.605C55.454 37.82 54.441 41.422 52.756 44.618L51.049 43.632C50.571 43.356 49.959 43.518 49.683 43.998C49.407 44.477 49.571 45.088 50.049 45.364L51.752 46.347C49.767 49.476 47.109 52.134 43.98 54.119L42.997 52.416C42.72 51.936 42.107 51.773 41.631 52.05C41.152 52.326 40.988 52.938 41.265 53.416L42.251 55.123C39.1 56.785 35.556 57.795 31.795 57.968V56C31.795 55.447 31.348 55 30.795 55C30.242 55 29.795 55.447 29.795 56V57.976C28.198 57.921 26.596 57.721 25.019 57.359C24.481 57.23 23.944 57.572 23.821 58.11C23.697 58.648 24.034 59.185 24.572 59.308C26.568 59.768 28.607 60 30.63 60C30.679 60 30.726 59.997 30.775 59.996C30.782 59.996 30.787 60 30.793 60C30.801 60 30.808 59.995 30.816 59.995C35.623 59.962 40.133 58.664 44.035 56.422C44.066 56.408 44.099 56.401 44.129 56.383C44.149 56.371 44.16 56.352 44.179 56.339C48.218 53.985 51.593 50.614 53.952 46.578C53.971 46.551 53.995 46.53 54.012 46.5C54.024 46.479 54.023 46.457 54.033 46.436C56.317 42.476 57.63 37.89 57.63 33C57.63 28.11 56.317 23.524 54.034 19.564ZM53.965 8.251L55.379 9.665L53.965 11.08L52.55 9.665L53.965 8.251ZM29.793 6.021V3H26.293C26.018 3 25.793 2.775 25.793 2.5C25.793 2.225 26.018 2 26.293 2H35.293C35.568 2 35.793 2.225 35.793 2.5C35.793 2.775 35.568 3 35.293 3H31.793V6.021C31.445 6.007 31.113 6 30.793 6C30.765 6 30.733 6.002 30.705 6.002C30.68 6.002 30.655 6 30.63 6C30.466 6 30.302 6.011 30.138 6.014C30.022 6.017 29.913 6.016 29.793 6.021Z" fill="black"/>
    <path d="M21.793 14H16.793C16.24 14 15.793 14.447 15.793 15C15.793 15.553 16.24 16 16.793 16H21.793C22.346 16 22.793 15.553 22.793 15C22.793 14.447 22.346 14 21.793 14Z" fill="black"/>
    <path d="M21.793 21H11.793C11.24 21 10.793 21.447 10.793 22C10.793 22.553 11.24 23 11.793 23H21.793C22.346 23 22.793 22.553 22.793 22C22.793 21.447 22.346 21 21.793 21Z" fill="black"/>
    <path d="M21.793 28H6.793C6.24 28 5.793 28.447 5.793 29C5.793 29.553 6.24 30 6.793 30H21.793C22.346 30 22.793 29.553 22.793 29C22.793 28.447 22.346 28 21.793 28Z" fill="black"/>
    <path d="M21.793 35H2.793C2.24 35 1.793 35.447 1.793 36C1.793 36.553 2.24 37 2.793 37H21.793C22.346 37 22.793 36.553 22.793 36C22.793 35.447 22.346 35 21.793 35Z" fill="black"/>
    <path d="M21.793 42H8.793C8.24 42 7.793 42.447 7.793 43C7.793 43.553 8.24 44 8.793 44H21.793C22.346 44 22.793 43.553 22.793 43C22.793 42.447 22.346 42 21.793 42Z" fill="black"/>
    <path d="M21.793 49H14.793C14.24 49 13.793 49.447 13.793 50C13.793 50.553 14.24 51 14.793 51H21.793C22.346 51 22.793 50.553 22.793 50C22.793 49.447 22.346 49 21.793 49Z" fill="black"/>

  </symbol>
  <symbol  viewBox="0 0 30 30" id="vk">
    <path d="M15 0C6.71779 0 0 6.71779 0 15C0 23.2822 6.71779 30 15 30C23.2822 30 30 23.2822 30 15C30 6.71779 23.2822 0 15 0ZM22.6074 16.6258C23.3129 17.3006 24.0491 17.9448 24.6626 18.7117C24.9386 19.0491 25.2147 19.3865 25.3988 19.7853C25.6748 20.3374 25.4294 20.9509 24.9386 20.9816H21.8712C21.0736 21.0429 20.4601 20.7362 19.908 20.184C19.4785 19.7546 19.0798 19.2945 18.681 18.8344C18.5276 18.6503 18.3436 18.4663 18.1288 18.3436C17.6994 18.0675 17.3313 18.1595 17.1166 18.589C16.8712 19.0491 16.8098 19.5399 16.7791 20.0307C16.7485 20.7669 16.5337 20.9509 15.7975 20.9816C14.2331 21.0429 12.7607 20.8282 11.411 20.0307C10.2147 19.3252 9.2638 18.3742 8.46626 17.2699C6.87117 15.1227 5.67485 12.7607 4.57055 10.3374C4.32515 9.78528 4.5092 9.5092 5.1227 9.47853C6.13497 9.44785 7.11656 9.44785 8.12883 9.47853C8.52761 9.47853 8.80368 9.72393 8.95705 10.092C9.5092 11.411 10.1534 12.6994 10.9816 13.865C11.1963 14.1718 11.4417 14.4785 11.7485 14.7239C12.1166 14.9693 12.362 14.8773 12.546 14.4785C12.638 14.2331 12.6994 13.9571 12.7301 13.681C12.8221 12.7607 12.8221 11.8405 12.6687 10.9202C12.5767 10.3067 12.2699 9.93865 11.6871 9.81595C11.3804 9.7546 11.4417 9.66258 11.5644 9.47853C11.8098 9.20245 12.0552 9.0184 12.5153 9.0184H15.9816C16.5337 9.1411 16.6564 9.35583 16.7178 9.90797V13.773C16.7178 13.9877 16.8098 14.6319 17.2086 14.7546C17.5153 14.8466 17.7301 14.6012 17.9141 14.4172C18.7423 13.5276 19.3252 12.4847 19.8773 11.411C20.1227 10.9202 20.3067 10.4294 20.5215 9.93865C20.6748 9.57055 20.8896 9.3865 21.319 9.3865H24.6626C24.7546 9.3865 24.8466 9.3865 24.9693 9.41718C25.5215 9.5092 25.6748 9.7546 25.5215 10.3067C25.2454 11.1656 24.7239 11.9018 24.2025 12.6074C23.6503 13.3742 23.0368 14.1104 22.4847 14.908C21.9325 15.6442 21.9632 16.0123 22.6074 16.6258Z" fill="#B3B3B3"/>
  </symbol>
  <symbol  viewBox="0 0 30 30" id="fb">
    <path d="M17.4199 29.8066C17.2969 29.8242 17.168 29.8477 17.0449 29.8652C17.168 29.8418 17.291 29.8242 17.4199 29.8066Z" fill="black"/>
    <path d="M17.7188 29.7539C17.6602 29.7656 17.6016 29.7773 17.5371 29.7832C17.6016 29.7773 17.6602 29.7656 17.7188 29.7539Z" fill="black"/>
    <path d="M16.7051 29.9004C16.5586 29.918 16.4121 29.9297 16.2656 29.9414C16.4121 29.9355 16.5586 29.918 16.7051 29.9004Z" fill="black"/>
    <path d="M16.998 29.8652C16.9277 29.877 16.8574 29.8828 16.7871 29.8887C16.8516 29.8828 16.9277 29.877 16.998 29.8652Z" fill="black"/>
    <path d="M18.1289 29.6719C18.0762 29.6836 18.0234 29.6953 17.9707 29.707C18.0234 29.6953 18.0762 29.6836 18.1289 29.6719Z" fill="black"/>
    <path d="M19.1426 29.4199C19.1016 29.4316 19.0547 29.4434 19.0137 29.4551C19.0547 29.4434 19.0957 29.4316 19.1426 29.4199Z" fill="black"/>
    <path d="M18.832 29.502C18.7852 29.5137 18.7383 29.5254 18.6914 29.5371C18.7441 29.5313 18.7852 29.5195 18.832 29.502Z" fill="black"/>
    <path d="M18.4336 29.6074C18.3867 29.6191 18.334 29.6309 18.2871 29.6426C18.334 29.625 18.3867 29.6133 18.4336 29.6074Z" fill="black"/>
    <path d="M16.2598 29.9473C16.1836 29.9531 16.1016 29.959 16.0254 29.9648C16.1016 29.959 16.1836 29.9531 16.2598 29.9473Z" fill="black"/>
    <path d="M30 15C30 6.71484 23.2852 0 15 0C6.71484 0 0 6.71484 0 15C0 23.2852 6.71484 30 15 30C15.0879 30 15.1758 30 15.2637 29.9941V18.3223H12.041V14.5664H15.2637V11.8008C15.2637 8.5957 17.2207 6.84961 20.0801 6.84961C21.4512 6.84961 22.6289 6.94922 22.9688 6.99609V10.3477H21C19.4473 10.3477 19.1426 11.0859 19.1426 12.1699V14.5605H22.8633L22.377 18.3164H19.1426V29.4199C25.4121 27.6211 30 21.8496 30 15Z" fill="black"/>
    <path d="M15.9902 29.9648C15.832 29.9766 15.6797 29.9824 15.5215 29.9883C15.6797 29.9824 15.832 29.9766 15.9902 29.9648Z" fill="black"/>
    <path d="M15.5156 29.9883C15.4336 29.9883 15.3516 29.9941 15.2695 29.9941C15.3457 29.9941 15.4277 29.9941 15.5156 29.9883Z" fill="black"/>
  </symbol>
  <symbol  viewBox="0 0 30 30" id="inst">
    <path d="M17.8711 15C17.8711 16.5879 16.5879 17.8711 15 17.8711C13.4121 17.8711 12.1289 16.5879 12.1289 15C12.1289 13.4121 13.4121 12.1289 15 12.1289C16.5879 12.1289 17.8711 13.4121 17.8711 15Z" fill="#B3B3B3"/>
    <path d="M21.7148 9.91992C21.5742 9.54492 21.3574 9.20508 21.0703 8.92969C20.7949 8.64258 20.4551 8.42578 20.0801 8.28516C19.7754 8.16797 19.3184 8.02734 18.4805 7.98633C17.5723 7.94531 17.2969 7.93359 15 7.93359C12.6973 7.93359 12.4277 7.93945 11.5195 7.98633C10.6816 8.02734 10.2246 8.16797 9.91992 8.28516C9.54492 8.42578 9.20508 8.64258 8.92969 8.92969C8.64258 9.20508 8.42578 9.54492 8.28516 9.91992C8.16797 10.2246 8.02734 10.6816 7.98633 11.5195C7.94531 12.4277 7.93359 12.6973 7.93359 15C7.93359 17.2969 7.94531 17.5723 7.98633 18.4805C8.02734 19.3184 8.16211 19.7754 8.28516 20.0801C8.42578 20.4551 8.64258 20.7949 8.92969 21.0703C9.20508 21.3574 9.54492 21.5742 9.91992 21.7148C10.2246 21.832 10.6816 21.9727 11.5195 22.0137C12.4277 22.0547 12.6973 22.0664 15 22.0664C17.3027 22.0664 17.5723 22.0605 18.4805 22.0137C19.3184 21.9727 19.7754 21.8379 20.0801 21.7148C20.8301 21.4277 21.4277 20.8301 21.7148 20.0801C21.832 19.7754 21.9727 19.3184 22.0137 18.4805C22.0547 17.5723 22.0664 17.2969 22.0664 15C22.0664 12.6973 22.0605 12.4277 22.0137 11.5195C21.9727 10.6816 21.832 10.2246 21.7148 9.91992ZM15 19.4238C12.5566 19.4238 10.5762 17.4434 10.5762 15C10.5762 12.5566 12.5566 10.5762 15 10.5762C17.4434 10.5762 19.4238 12.5566 19.4238 15C19.4238 17.4434 17.4434 19.4238 15 19.4238ZM19.5996 11.4375C19.0312 11.4375 18.5684 10.9746 18.5684 10.4063C18.5684 9.83789 19.0312 9.375 19.5996 9.375C20.168 9.375 20.6309 9.83789 20.6309 10.4063C20.6309 10.9746 20.168 11.4375 19.5996 11.4375Z" fill="#B3B3B3"/>
    <path d="M15 0C6.71484 0 0 6.71484 0 15C0 23.2852 6.71484 30 15 30C23.2852 30 30 23.2852 30 15C30 6.71484 23.2852 0 15 0ZM23.5605 18.5508C23.5195 19.4648 23.373 20.0918 23.1621 20.6426C22.7168 21.7969 21.8027 22.7168 20.6426 23.1621C20.0977 23.373 19.4707 23.5195 18.5508 23.5605C17.6309 23.6016 17.3379 23.6133 15 23.6133C12.6621 23.6133 12.3691 23.6016 11.4492 23.5605C10.5352 23.5195 9.9082 23.373 9.35742 23.1621C8.7832 22.9453 8.26172 22.6055 7.83398 22.166C7.39453 21.7383 7.05469 21.2168 6.83789 20.6426C6.62695 20.0977 6.48047 19.4707 6.43945 18.5508C6.39844 17.6309 6.38672 17.3379 6.38672 15C6.38672 12.6621 6.39844 12.3691 6.43945 11.4492C6.48047 10.5352 6.62695 9.9082 6.83789 9.35742C7.05469 8.7832 7.39453 8.26172 7.83398 7.83398C8.26172 7.39453 8.7832 7.05469 9.35742 6.83789C9.9082 6.62695 10.5293 6.48047 11.4492 6.43945C12.3691 6.39844 12.6621 6.38672 15 6.38672C17.3379 6.38672 17.6309 6.39844 18.5508 6.43945C19.4648 6.48047 20.0918 6.62695 20.6426 6.83789C21.2168 7.05469 21.7383 7.39453 22.166 7.83398C22.6055 8.26172 22.9453 8.7832 23.1621 9.35742C23.373 9.9082 23.5195 10.5293 23.5605 11.4492C23.6016 12.3691 23.6133 12.6621 23.6133 15C23.6133 17.3379 23.6016 17.6309 23.5605 18.5508Z" fill="#B3B3B3"/>
  </symbol>
  <symbol  viewBox="0 0 30 30" id="tg">
    <path d="M15 30C23.2852 30 30 23.2852 30 15C30 6.71484 23.2852 0 15 0C6.71484 0 0 6.71484 0 15C0 23.2852 6.71484 30 15 30ZM6.86133 14.6777L21.3281 9.09961C22.002 8.85938 22.5879 9.26367 22.3652 10.2773L19.9043 21.8789C19.7227 22.6992 19.2305 22.9043 18.5508 22.5117L14.8008 19.7461L12.9902 21.4863C12.791 21.6855 12.6211 21.8555 12.2344 21.8555L12.498 18.041L19.4531 11.7656C19.7578 11.502 19.3828 11.3496 18.9844 11.6133L10.3945 17.0215L6.69141 15.8672C5.88867 15.6094 5.87109 15.0645 6.86133 14.6777Z" fill="#B3B3B3"/>
  </symbol>
  <symbol  viewBox="0 0 24 24" id="bluetooth">
    <path d="M18.2054 17.5212L13.1636 12L18.2054 6.47941C18.3637 6.30555 18.4445 6.0739 18.4276 5.83901C18.4107 5.60388 18.2984 5.38591 18.1163 5.23643L11.9874 0.195911C11.7305 -0.0154485 11.3753 -0.0598392 11.0746 0.0825203C10.7739 0.22427 10.5823 0.526708 10.5823 0.859239V9.1736L7.06391 5.32043C6.74426 4.97018 6.20042 4.94552 5.85017 5.26544C5.49992 5.58537 5.47526 6.12865 5.79518 6.47918L10.5823 11.7217V12.2784L5.79523 17.5212C5.47503 17.8711 5.49968 18.4147 5.85022 18.7349C6.20075 19.0551 6.74408 19.0304 7.06395 18.6796L10.5821 14.827V23.1408C10.5821 23.473 10.774 23.7757 11.0744 23.9178C11.1913 23.9728 11.3167 24 11.4413 24C11.6369 24 11.8305 23.9336 11.9874 23.8047L18.1163 18.7641C18.2984 18.6143 18.4107 18.3964 18.4276 18.1615C18.4445 17.9267 18.3643 17.695 18.2054 17.5212ZM12.3007 2.67837L16.326 5.98854L12.3007 10.3968V2.67837ZM12.3007 21.3216V13.6035L16.326 18.0115L12.3007 21.3216Z" fill="black"/>
  </symbol>
  <symbol  viewBox="0 0 24 24" id="road">
    <path d="M5.25 4.5C2.355 4.5 0 6.855 0 9.75C0 12.444 4.212 17.2155 4.692 17.751C4.8345 17.9085 5.037 18 5.25 18C5.463 18 5.6655 17.9085 5.808 17.751C6.288 17.2155 10.5 12.444 10.5 9.75C10.5 6.855 8.145 4.5 5.25 4.5ZM5.25 16.1055C3.612 14.163 1.5 11.181 1.5 9.75C1.5 7.683 3.183 6 5.25 6C7.317 6 9 7.683 9 9.75C9 11.1795 6.888 14.163 5.25 16.1055Z" fill="black"/>
    <path d="M5.25 7.5C4.0095 7.5 3 8.5095 3 9.75C3 10.9905 4.0095 12 5.25 12C6.4905 12 7.5 10.9905 7.5 9.75C7.5 8.5095 6.4905 7.5 5.25 7.5ZM5.25 10.5C4.836 10.5 4.5 10.164 4.5 9.75C4.5 9.336 4.836 9 5.25 9C5.664 9 6 9.336 6 9.75C6 10.164 5.664 10.5 5.25 10.5Z" fill="black"/>
    <path d="M23.25 0H17.25C16.836 0 16.5 0.336 16.5 0.75V5.25V8.25C16.5 8.664 16.836 9 17.25 9C17.664 9 18 8.664 18 8.25V6H23.25C23.664 6 24 5.664 24 5.25V0.75C24 0.336 23.664 0 23.25 0ZM22.5 4.5H18V1.5H22.5V4.5Z" fill="black"/>
    <path d="M21 16.5H13.5C12.6735 16.5 12 15.8265 12 15C12 14.1735 12.6735 13.5 13.5 13.5H15.138C15.4485 14.3715 16.2735 15 17.25 15C18.4905 15 19.5 13.9905 19.5 12.75C19.5 11.5095 18.4905 10.5 17.25 10.5C16.2735 10.5 15.4485 11.1285 15.138 12H13.5C11.8455 12 10.5 13.3455 10.5 15C10.5 16.6545 11.8455 18 13.5 18H21C21.8265 18 22.5 18.6735 22.5 19.5C22.5 20.3265 21.8265 21 21 21H7.362C7.0515 20.1285 6.2265 19.5 5.25 19.5C4.0095 19.5 3 20.5095 3 21.75C3 22.9905 4.0095 24 5.25 24C6.2265 24 7.0515 23.3715 7.362 22.5H21C22.6545 22.5 24 21.1545 24 19.5C24 17.8455 22.6545 16.5 21 16.5ZM17.25 12C17.664 12 18 12.336 18 12.75C18 13.164 17.664 13.5 17.25 13.5C16.836 13.5 16.5 13.164 16.5 12.75C16.5 12.336 16.836 12 17.25 12ZM5.25 22.5C4.836 22.5 4.5 22.164 4.5 21.75C4.5 21.336 4.836 21 5.25 21C5.664 21 6 21.336 6 21.75C6 22.164 5.664 22.5 5.25 22.5Z" fill="black"/>
  </symbol>
  <symbol  viewBox="0 0 24 24" id="charger">
    <path d="M22.08 7.22744V5.12612C22.08 4.73628 21.7639 4.42024 21.3741 4.42024H18.096C17.7061 4.42024 17.3901 4.73628 17.3901 5.12612V7.22744C17.0301 7.25962 16.7478 7.56174 16.7478 7.93012V11.7258C16.7478 12.5907 17.4515 13.2943 18.3164 13.2943H19.0292V20.8141C19.0292 21.7924 18.2331 22.5882 17.2546 22.5882H9.53833C8.56007 22.5882 7.76421 21.7924 7.76421 20.8141V19.2941H9.26539C9.65523 19.2941 9.97127 18.9781 9.97127 18.5882V16.298H10.7211C11.8887 16.298 12.8387 15.348 12.8387 14.1804V7.77821C12.8387 6.82607 12.2069 6.01887 11.3407 5.75327V3.33271C11.3407 2.94287 11.0246 2.62682 10.6348 2.62682H9.64704V0.705882C9.64704 0.316047 9.33099 0 8.94115 0C8.55132 0 8.23527 0.316047 8.23527 0.705882V2.62682H5.88139V0.705882C5.88139 0.316047 5.56534 0 5.17551 0C4.78567 0 4.46963 0.316047 4.46963 0.705882V2.62682H3.48186C3.09202 2.62682 2.77598 2.94287 2.77598 3.33271V5.75327C1.90967 6.01887 1.27795 6.82602 1.27795 7.77821V14.1804C1.27795 15.348 2.22793 16.298 3.3956 16.298H4.14539V18.5882C4.14539 18.9781 4.46144 19.2941 4.85127 19.2941H6.35245V20.8141C6.35245 22.5708 7.78163 24 9.53833 24H17.2546C19.0115 24 20.4409 22.5708 20.4409 20.8141V13.2943H21.1535C22.0184 13.2943 22.722 12.5907 22.722 11.7258V7.93012C22.722 7.56179 22.4398 7.25976 22.08 7.22744ZM9.92892 4.03859V5.66056H4.18774V4.03859H9.92892ZM2.68967 14.1804V7.77821C2.68967 7.38899 3.00633 7.07233 3.39555 7.07233H10.7211C11.1103 7.07233 11.4269 7.38899 11.4269 7.77821V14.1804C11.4269 14.5696 11.1103 14.8863 10.7211 14.8863C10.4252 14.8863 3.73245 14.8863 3.39555 14.8863C3.00633 14.8863 2.68967 14.5696 2.68967 14.1804ZM5.55715 16.298H8.55951V17.8824H5.55715V16.298ZM20.6682 5.832V7.22424H18.8019V5.832H20.6682ZM21.3103 11.7258C21.3103 11.8122 21.2399 11.8825 21.1535 11.8825C21.0671 11.8825 19.1153 11.8825 18.3164 11.8825C18.2299 11.8825 18.1596 11.8122 18.1596 11.7258V8.636H21.3103V11.7258Z" fill="black"/>
    <path d="M6.16377 11.6851H6.87986L6.56777 12.4089C6.41341 12.7669 6.5785 13.1823 6.93643 13.3366C7.29497 13.4911 7.70994 13.3255 7.8641 12.9679L8.60109 11.2588C8.80203 10.7928 8.45925 10.2734 7.9529 10.2734H7.2368L7.5489 9.54964C7.70325 9.19166 7.53817 8.77628 7.18024 8.62192C6.82217 8.46762 6.40687 8.6327 6.25257 8.99063L5.51558 10.6998C5.31464 11.1657 5.65741 11.6851 6.16377 11.6851Z" fill="black"/>
  </symbol>
  <symbol  viewBox="0 0 24 24" id="kg">
    <path d="M20.3373 6.39972H14.9742C15.5392 5.7226 15.88 4.85193 15.88 3.90308C15.88 1.75085 14.1292 0 11.9771 0C9.82489 0 8.07404 1.75085 8.07404 3.90308C8.07404 4.85193 8.41479 5.7226 8.97986 6.39972H3.6167L0.28125 24H23.6728L20.3373 6.39972ZM11.9771 1.40625C13.3537 1.40625 14.4738 2.52631 14.4738 3.90308C14.4738 5.27966 13.3537 6.39972 11.9771 6.39972C10.6003 6.39972 9.48029 5.27966 9.48029 3.90308C9.48029 2.52631 10.6003 1.40625 11.9771 1.40625ZM4.78143 7.80597H19.1726L21.975 22.5938H1.979L4.78143 7.80597Z" fill="black"/>
    <path d="M12.0055 12.4026H10.4094L8.17786 14.631V12.4026H7.03088V18.0225H8.17786V16.1017L8.75629 15.5377L10.5044 18.0225H11.985L9.57532 14.7496L12.0055 12.4026Z" fill="black"/>
    <path d="M14.2747 16.0007H15.7903V16.617C15.6685 16.7058 15.5026 16.793 15.2955 16.8766C15.0436 16.9786 14.7817 17.0303 14.5177 17.0303C14.2154 17.0303 13.9261 16.9627 13.6575 16.8294C13.3986 16.701 13.2063 16.5092 13.0701 16.2426C12.9294 15.9677 12.8582 15.6152 12.8582 15.195C12.8582 14.8546 12.9186 14.5355 13.0371 14.2474C13.1041 14.0872 13.1995 13.938 13.3207 13.8034C13.4363 13.6752 13.5936 13.569 13.7878 13.4879C13.9858 13.4053 14.2277 13.3634 14.5071 13.3634C14.7347 13.3634 14.9432 13.4028 15.1269 13.4804C15.3016 13.5542 15.4356 13.6511 15.5251 13.7681C15.6222 13.8948 15.7062 14.0775 15.7751 14.3113L15.8395 14.5302L16.8955 14.2405L16.8386 14.0191C16.7417 13.6419 16.5959 13.329 16.4052 13.0886C16.2094 12.8419 15.939 12.6482 15.601 12.5127C15.2736 12.3814 14.9044 12.3149 14.5036 12.3149C13.9539 12.3149 13.4592 12.4307 13.0331 12.6588C12.5969 12.8925 12.2585 13.2534 12.028 13.7314C11.8037 14.1962 11.6902 14.7026 11.6902 15.2373C11.6902 15.7786 11.8052 16.277 12.0324 16.7184C12.2648 17.1703 12.6132 17.5203 13.0684 17.7587C13.5139 17.9921 14.0145 18.1106 14.5563 18.1106C14.9579 18.1106 15.3547 18.0375 15.7357 17.8932C16.1131 17.7506 16.4832 17.5356 16.8356 17.2546L16.9233 17.1848V14.9271L14.2747 14.9313V16.0007Z" fill="black"/>
  </symbol>
  <symbol  viewBox="0 0 24 24" id="patent">
    <path d="M24 1.78125H0V19.2266H14.7643V22.2543L17.3884 20.9725L20.0125 22.2543V19.2266H24V1.78125ZM17.3884 16.413C16.0701 16.413 14.9978 15.3406 14.9978 14.0224C14.9978 12.7042 16.0701 11.6318 17.3884 11.6318C18.7066 11.6318 19.7791 12.7042 19.7791 14.0224C19.7791 15.3406 18.7066 16.413 17.3884 16.413ZM17.3884 19.4075L16.1706 20.0023V17.6177C16.5531 17.7477 16.9623 17.8193 17.3884 17.8193C17.8143 17.8193 18.2236 17.7477 18.6063 17.6177V20.0023L17.3884 19.4075ZM22.5938 17.8204H20.0125V16.7626C20.7343 16.071 21.1853 15.0987 21.1853 14.0224C21.1853 11.9288 19.4821 10.2255 17.3884 10.2255C15.2948 10.2255 13.5916 11.9288 13.5916 14.0224C13.5916 15.0987 14.0424 16.0712 14.7643 16.7626V17.8204H1.40625V3.1875H22.5938V17.8204Z" fill="black"/>
    <path d="M2.81415 7.41064H21.1859V8.81689H2.81415V7.41064Z" fill="black"/>
    <path d="M4.92517 4.59595H19.0748V6.0022H4.92517V4.59595Z" fill="black"/>
    <path d="M2.81415 15.0056H9.65442V16.4119H2.81415V15.0056Z" fill="black"/>
    <path d="M2.81415 12.1908H9.65442V13.597H2.81415V12.1908Z" fill="black"/>
    </symbol>
</svg>